<mxfile host="app.diagrams.net" modified="2023-08-23T02:00:39.515Z" agent="Mozilla/5.0 (Windows NT 10.0; Win64; x64) AppleWebKit/537.36 (KHTML, like Gecko) Chrome/115.0.0.0 Safari/537.36 Edg/115.0.1901.200" etag="FJo8kvutwv6RsyQjIzxi" version="21.6.8" type="github">
  <diagram id="C5RBs43oDa-KdzZeNtuy" name="Page-1">
    <mxGraphModel dx="1195" dy="663" grid="1" gridSize="10" guides="1" tooltips="1" connect="1" arrows="1" fold="1" page="1" pageScale="1" pageWidth="827" pageHeight="1169" math="0" shadow="0">
      <root>
        <mxCell id="WIyWlLk6GJQsqaUBKTNV-0" />
        <mxCell id="WIyWlLk6GJQsqaUBKTNV-1" parent="WIyWlLk6GJQsqaUBKTNV-0" />
        <mxCell id="WIyWlLk6GJQsqaUBKTNV-10" value="&lt;font style=&quot;font-size: 8px;&quot;&gt;Check if user requested Dashboard&lt;/font&gt;" style="rhombus;whiteSpace=wrap;html=1;shadow=0;fontFamily=Helvetica;fontSize=12;align=center;strokeWidth=1;spacing=6;spacingTop=-4;" parent="WIyWlLk6GJQsqaUBKTNV-1" vertex="1">
          <mxGeometry x="134.09032258064516" y="161.22641509433964" width="89.98709677419356" height="83.20754716981132" as="geometry" />
        </mxCell>
        <mxCell id="WIyWlLk6GJQsqaUBKTNV-11" value="Show Pop Up Model" style="rounded=1;whiteSpace=wrap;html=1;fontSize=12;glass=0;strokeWidth=1;shadow=0;" parent="WIyWlLk6GJQsqaUBKTNV-1" vertex="1">
          <mxGeometry x="130" y="286.0377358490566" width="98.16774193548387" height="31.698113207547173" as="geometry" />
        </mxCell>
        <mxCell id="4ZTLZE3sSYFrQPKp-FNL-12" value="" style="edgeStyle=orthogonalEdgeStyle;rounded=0;orthogonalLoop=1;jettySize=auto;html=1;" edge="1" parent="WIyWlLk6GJQsqaUBKTNV-1" source="WIyWlLk6GJQsqaUBKTNV-10" target="WIyWlLk6GJQsqaUBKTNV-11">
          <mxGeometry relative="1" as="geometry" />
        </mxCell>
        <mxCell id="4ZTLZE3sSYFrQPKp-FNL-15" value="" style="edgeStyle=orthogonalEdgeStyle;rounded=0;orthogonalLoop=1;jettySize=auto;html=1;" edge="1" parent="WIyWlLk6GJQsqaUBKTNV-1" source="4ZTLZE3sSYFrQPKp-FNL-0" target="WIyWlLk6GJQsqaUBKTNV-10">
          <mxGeometry relative="1" as="geometry" />
        </mxCell>
        <mxCell id="4ZTLZE3sSYFrQPKp-FNL-0" value="" style="verticalLabelPosition=bottom;verticalAlign=top;html=1;shape=mxgraph.flowchart.on-page_reference;" vertex="1" parent="WIyWlLk6GJQsqaUBKTNV-1">
          <mxGeometry x="138.18064516129033" y="80" width="81.80645161290323" height="55.47169811320755" as="geometry" />
        </mxCell>
        <mxCell id="4ZTLZE3sSYFrQPKp-FNL-3" value="Sign Up /&lt;br&gt;Sign In" style="text;strokeColor=none;align=center;fillColor=none;html=1;verticalAlign=middle;whiteSpace=wrap;rounded=0;" vertex="1" parent="WIyWlLk6GJQsqaUBKTNV-1">
          <mxGeometry x="138.18064516129033" y="95.84905660377359" width="81.80645161290323" height="23.77358490566038" as="geometry" />
        </mxCell>
        <mxCell id="4ZTLZE3sSYFrQPKp-FNL-6" value="" style="rounded=1;whiteSpace=wrap;html=1;absoluteArcSize=1;arcSize=14;strokeWidth=2;" vertex="1" parent="WIyWlLk6GJQsqaUBKTNV-1">
          <mxGeometry x="600.3870967741937" y="175.0943396226415" width="73.6258064516129" height="55.47169811320755" as="geometry" />
        </mxCell>
        <mxCell id="4ZTLZE3sSYFrQPKp-FNL-10" value="" style="edgeStyle=orthogonalEdgeStyle;rounded=0;orthogonalLoop=1;jettySize=auto;html=1;entryX=0;entryY=0.5;entryDx=0;entryDy=0;" edge="1" parent="WIyWlLk6GJQsqaUBKTNV-1" source="WIyWlLk6GJQsqaUBKTNV-10" target="4ZTLZE3sSYFrQPKp-FNL-6">
          <mxGeometry relative="1" as="geometry">
            <mxPoint x="305.8838709677419" y="202.83018867924528" as="targetPoint" />
            <Array as="points" />
          </mxGeometry>
        </mxCell>
        <mxCell id="4ZTLZE3sSYFrQPKp-FNL-7" value="Home Page" style="text;strokeColor=none;align=center;fillColor=none;html=1;verticalAlign=middle;whiteSpace=wrap;rounded=0;" vertex="1" parent="WIyWlLk6GJQsqaUBKTNV-1">
          <mxGeometry x="612.6580645161291" y="190.9433962264151" width="49.08387096774194" height="23.77358490566038" as="geometry" />
        </mxCell>
        <mxCell id="4ZTLZE3sSYFrQPKp-FNL-13" value="No" style="text;strokeColor=none;align=center;fillColor=none;html=1;verticalAlign=middle;whiteSpace=wrap;rounded=0;" vertex="1" parent="WIyWlLk6GJQsqaUBKTNV-1">
          <mxGeometry x="170.90322580645162" y="250.0041509433962" width="49.08387096774194" height="23.77358490566038" as="geometry" />
        </mxCell>
        <mxCell id="4ZTLZE3sSYFrQPKp-FNL-14" value="Yes" style="text;strokeColor=none;align=center;fillColor=none;html=1;verticalAlign=middle;whiteSpace=wrap;rounded=0;" vertex="1" parent="WIyWlLk6GJQsqaUBKTNV-1">
          <mxGeometry x="226.1225806451613" y="183.0188679245283" width="49.08387096774194" height="23.77358490566038" as="geometry" />
        </mxCell>
        <mxCell id="4ZTLZE3sSYFrQPKp-FNL-17" value="Step 1:&lt;br&gt;Request for Dashboard" style="whiteSpace=wrap;html=1;rounded=1;glass=0;strokeWidth=1;shadow=0;" vertex="1" parent="WIyWlLk6GJQsqaUBKTNV-1">
          <mxGeometry x="130" y="365.28301886792457" width="98.16774193548387" height="47.54716981132076" as="geometry" />
        </mxCell>
        <mxCell id="4ZTLZE3sSYFrQPKp-FNL-18" value="" style="edgeStyle=orthogonalEdgeStyle;rounded=0;orthogonalLoop=1;jettySize=auto;html=1;" edge="1" parent="WIyWlLk6GJQsqaUBKTNV-1" source="WIyWlLk6GJQsqaUBKTNV-11" target="4ZTLZE3sSYFrQPKp-FNL-17">
          <mxGeometry relative="1" as="geometry" />
        </mxCell>
        <mxCell id="4ZTLZE3sSYFrQPKp-FNL-23" value="" style="edgeStyle=orthogonalEdgeStyle;rounded=0;orthogonalLoop=1;jettySize=auto;html=1;entryX=0;entryY=0.5;entryDx=0;entryDy=0;entryPerimeter=0;" edge="1" parent="WIyWlLk6GJQsqaUBKTNV-1" source="WIyWlLk6GJQsqaUBKTNV-11" target="4ZTLZE3sSYFrQPKp-FNL-24">
          <mxGeometry relative="1" as="geometry">
            <mxPoint x="228.1677419354839" y="301.8867924528302" as="sourcePoint" />
            <mxPoint x="264.98064516129034" y="309.81132075471703" as="targetPoint" />
            <Array as="points" />
          </mxGeometry>
        </mxCell>
        <mxCell id="4ZTLZE3sSYFrQPKp-FNL-53" style="edgeStyle=orthogonalEdgeStyle;rounded=0;orthogonalLoop=1;jettySize=auto;html=1;exitX=1;exitY=0.5;exitDx=0;exitDy=0;exitPerimeter=0;" edge="1" parent="WIyWlLk6GJQsqaUBKTNV-1" source="4ZTLZE3sSYFrQPKp-FNL-24" target="4ZTLZE3sSYFrQPKp-FNL-6">
          <mxGeometry relative="1" as="geometry" />
        </mxCell>
        <mxCell id="4ZTLZE3sSYFrQPKp-FNL-24" value="close the &lt;br&gt;pop-up" style="strokeWidth=2;html=1;shape=mxgraph.flowchart.decision;whiteSpace=wrap;" vertex="1" parent="WIyWlLk6GJQsqaUBKTNV-1">
          <mxGeometry x="277.2516129032258" y="270.188679245283" width="73.6258064516129" height="63.39622641509435" as="geometry" />
        </mxCell>
        <mxCell id="4ZTLZE3sSYFrQPKp-FNL-25" value="Yes" style="text;strokeColor=none;align=center;fillColor=none;html=1;verticalAlign=middle;whiteSpace=wrap;rounded=0;" vertex="1" parent="WIyWlLk6GJQsqaUBKTNV-1">
          <mxGeometry x="358.2370967741937" y="286.03396226415094" width="32.722580645161294" height="15.849056603773587" as="geometry" />
        </mxCell>
        <mxCell id="4ZTLZE3sSYFrQPKp-FNL-26" value="&lt;font style=&quot;font-size: 6px;&quot;&gt;Clicking Request &lt;br&gt;Button&lt;/font&gt;" style="strokeWidth=2;html=1;shape=mxgraph.flowchart.decision;whiteSpace=wrap;" vertex="1" parent="WIyWlLk6GJQsqaUBKTNV-1">
          <mxGeometry x="279.2967741935484" y="357.35849056603774" width="69.53548387096775" height="63.39622641509435" as="geometry" />
        </mxCell>
        <mxCell id="4ZTLZE3sSYFrQPKp-FNL-27" value="" style="edgeStyle=orthogonalEdgeStyle;rounded=0;orthogonalLoop=1;jettySize=auto;html=1;" edge="1" parent="WIyWlLk6GJQsqaUBKTNV-1" source="4ZTLZE3sSYFrQPKp-FNL-17" target="4ZTLZE3sSYFrQPKp-FNL-26">
          <mxGeometry relative="1" as="geometry" />
        </mxCell>
        <mxCell id="4ZTLZE3sSYFrQPKp-FNL-32" value="Submitting information" style="rounded=1;whiteSpace=wrap;html=1;absoluteArcSize=1;arcSize=14;strokeWidth=2;" vertex="1" parent="WIyWlLk6GJQsqaUBKTNV-1">
          <mxGeometry x="395.8709677419355" y="369.24528301886795" width="65.44516129032259" height="39.62264150943396" as="geometry" />
        </mxCell>
        <mxCell id="4ZTLZE3sSYFrQPKp-FNL-33" value="" style="edgeStyle=orthogonalEdgeStyle;rounded=0;orthogonalLoop=1;jettySize=auto;html=1;" edge="1" parent="WIyWlLk6GJQsqaUBKTNV-1" source="4ZTLZE3sSYFrQPKp-FNL-26" target="4ZTLZE3sSYFrQPKp-FNL-32">
          <mxGeometry relative="1" as="geometry" />
        </mxCell>
        <mxCell id="4ZTLZE3sSYFrQPKp-FNL-34" value="yes" style="text;strokeColor=none;align=center;fillColor=none;html=1;verticalAlign=middle;whiteSpace=wrap;rounded=0;" vertex="1" parent="WIyWlLk6GJQsqaUBKTNV-1">
          <mxGeometry x="341.87870967741935" y="369.24528301886795" width="49.08387096774194" height="23.77358490566038" as="geometry" />
        </mxCell>
        <mxCell id="4ZTLZE3sSYFrQPKp-FNL-58" value="" style="edgeStyle=orthogonalEdgeStyle;rounded=0;orthogonalLoop=1;jettySize=auto;html=1;" edge="1" parent="WIyWlLk6GJQsqaUBKTNV-1" source="4ZTLZE3sSYFrQPKp-FNL-35" target="4ZTLZE3sSYFrQPKp-FNL-37">
          <mxGeometry relative="1" as="geometry">
            <Array as="points">
              <mxPoint x="539" y="420" />
              <mxPoint x="539" y="420" />
            </Array>
          </mxGeometry>
        </mxCell>
        <mxCell id="4ZTLZE3sSYFrQPKp-FNL-35" value="&lt;font style=&quot;font-size: 10px;&quot;&gt;Uploading Data&lt;/font&gt;" style="shape=parallelogram;perimeter=parallelogramPerimeter;whiteSpace=wrap;html=1;fixedSize=1;rounded=1;arcSize=14;strokeWidth=2;" vertex="1" parent="WIyWlLk6GJQsqaUBKTNV-1">
          <mxGeometry x="494.04" y="369.25" width="95.96" height="39.62" as="geometry" />
        </mxCell>
        <mxCell id="4ZTLZE3sSYFrQPKp-FNL-36" value="" style="edgeStyle=orthogonalEdgeStyle;rounded=0;orthogonalLoop=1;jettySize=auto;html=1;" edge="1" parent="WIyWlLk6GJQsqaUBKTNV-1" source="4ZTLZE3sSYFrQPKp-FNL-32" target="4ZTLZE3sSYFrQPKp-FNL-35">
          <mxGeometry relative="1" as="geometry" />
        </mxCell>
        <mxCell id="4ZTLZE3sSYFrQPKp-FNL-56" style="edgeStyle=orthogonalEdgeStyle;rounded=0;orthogonalLoop=1;jettySize=auto;html=1;entryX=1;entryY=0.5;entryDx=0;entryDy=0;" edge="1" parent="WIyWlLk6GJQsqaUBKTNV-1" source="4ZTLZE3sSYFrQPKp-FNL-37" target="4ZTLZE3sSYFrQPKp-FNL-39">
          <mxGeometry relative="1" as="geometry">
            <Array as="points">
              <mxPoint x="400" y="484" />
              <mxPoint x="400" y="484" />
            </Array>
          </mxGeometry>
        </mxCell>
        <mxCell id="4ZTLZE3sSYFrQPKp-FNL-37" value="Successfully completed" style="whiteSpace=wrap;html=1;rounded=1;arcSize=14;strokeWidth=2;" vertex="1" parent="WIyWlLk6GJQsqaUBKTNV-1">
          <mxGeometry x="489.99967741935484" y="448.49301886792455" width="98.16774193548387" height="47.54716981132076" as="geometry" />
        </mxCell>
        <mxCell id="4ZTLZE3sSYFrQPKp-FNL-39" value="Step 2:&lt;br&gt;Verify Email" style="whiteSpace=wrap;html=1;rounded=1;glass=0;strokeWidth=1;shadow=0;" vertex="1" parent="WIyWlLk6GJQsqaUBKTNV-1">
          <mxGeometry x="130" y="460.37735849056605" width="98.16774193548387" height="47.54716981132076" as="geometry" />
        </mxCell>
        <mxCell id="4ZTLZE3sSYFrQPKp-FNL-41" value="Completed" style="text;strokeColor=none;align=center;fillColor=none;html=1;verticalAlign=middle;whiteSpace=wrap;rounded=0;" vertex="1" parent="WIyWlLk6GJQsqaUBKTNV-1">
          <mxGeometry x="183.1741935483871" y="420.7547169811321" width="49.08387096774194" height="23.77358490566038" as="geometry" />
        </mxCell>
        <mxCell id="4ZTLZE3sSYFrQPKp-FNL-43" value="Completed" style="text;strokeColor=none;align=center;fillColor=none;html=1;verticalAlign=middle;whiteSpace=wrap;rounded=0;" vertex="1" parent="WIyWlLk6GJQsqaUBKTNV-1">
          <mxGeometry x="430.00290322580645" y="460.37735849056605" width="49.08387096774194" height="23.77358490566038" as="geometry" />
        </mxCell>
        <mxCell id="4ZTLZE3sSYFrQPKp-FNL-44" value="Verify Email?" style="strokeWidth=2;html=1;shape=mxgraph.flowchart.decision;whiteSpace=wrap;" vertex="1" parent="WIyWlLk6GJQsqaUBKTNV-1">
          <mxGeometry x="132.04516129032257" y="531.6981132075472" width="94.07741935483871" height="71.32075471698114" as="geometry" />
        </mxCell>
        <mxCell id="4ZTLZE3sSYFrQPKp-FNL-40" value="" style="edgeStyle=orthogonalEdgeStyle;rounded=0;orthogonalLoop=1;jettySize=auto;html=1;" edge="1" parent="WIyWlLk6GJQsqaUBKTNV-1" source="4ZTLZE3sSYFrQPKp-FNL-17" target="4ZTLZE3sSYFrQPKp-FNL-39">
          <mxGeometry relative="1" as="geometry" />
        </mxCell>
        <mxCell id="4ZTLZE3sSYFrQPKp-FNL-45" value="" style="edgeStyle=orthogonalEdgeStyle;rounded=0;orthogonalLoop=1;jettySize=auto;html=1;" edge="1" parent="WIyWlLk6GJQsqaUBKTNV-1" source="4ZTLZE3sSYFrQPKp-FNL-39" target="4ZTLZE3sSYFrQPKp-FNL-44">
          <mxGeometry relative="1" as="geometry" />
        </mxCell>
        <mxCell id="4ZTLZE3sSYFrQPKp-FNL-46" value="&lt;font style=&quot;font-size: 10px;&quot;&gt;Step 3:&lt;br&gt;Verifying Completion of other Steps&lt;/font&gt;" style="rounded=1;whiteSpace=wrap;html=1;strokeWidth=2;" vertex="1" parent="WIyWlLk6GJQsqaUBKTNV-1">
          <mxGeometry x="130" y="650.5660377358491" width="98.16774193548387" height="47.54716981132076" as="geometry" />
        </mxCell>
        <mxCell id="4ZTLZE3sSYFrQPKp-FNL-48" value="Yes" style="text;strokeColor=none;align=center;fillColor=none;html=1;verticalAlign=middle;whiteSpace=wrap;rounded=0;" vertex="1" parent="WIyWlLk6GJQsqaUBKTNV-1">
          <mxGeometry x="170.90322580645162" y="618.867924528302" width="49.08387096774194" height="23.77358490566038" as="geometry" />
        </mxCell>
        <mxCell id="4ZTLZE3sSYFrQPKp-FNL-51" style="edgeStyle=orthogonalEdgeStyle;rounded=0;orthogonalLoop=1;jettySize=auto;html=1;entryX=1;entryY=0.5;entryDx=0;entryDy=0;" edge="1" parent="WIyWlLk6GJQsqaUBKTNV-1" source="4ZTLZE3sSYFrQPKp-FNL-49" target="4ZTLZE3sSYFrQPKp-FNL-6">
          <mxGeometry relative="1" as="geometry">
            <Array as="points">
              <mxPoint x="764" y="674.3396226415094" />
              <mxPoint x="764" y="202.83018867924528" />
            </Array>
          </mxGeometry>
        </mxCell>
        <mxCell id="4ZTLZE3sSYFrQPKp-FNL-60" style="edgeStyle=orthogonalEdgeStyle;rounded=0;orthogonalLoop=1;jettySize=auto;html=1;entryX=0;entryY=0.5;entryDx=0;entryDy=0;" edge="1" parent="WIyWlLk6GJQsqaUBKTNV-1" source="4ZTLZE3sSYFrQPKp-FNL-49" target="WIyWlLk6GJQsqaUBKTNV-11">
          <mxGeometry relative="1" as="geometry">
            <Array as="points">
              <mxPoint x="330" y="780" />
              <mxPoint x="70" y="780" />
              <mxPoint x="70" y="302" />
            </Array>
          </mxGeometry>
        </mxCell>
        <mxCell id="4ZTLZE3sSYFrQPKp-FNL-49" value="If the steps &lt;br&gt;verified" style="strokeWidth=2;html=1;shape=mxgraph.flowchart.decision;whiteSpace=wrap;" vertex="1" parent="WIyWlLk6GJQsqaUBKTNV-1">
          <mxGeometry x="283.38709677419354" y="638.6792452830189" width="94.07741935483871" height="71.32075471698114" as="geometry" />
        </mxCell>
        <mxCell id="4ZTLZE3sSYFrQPKp-FNL-50" value="" style="edgeStyle=orthogonalEdgeStyle;rounded=0;orthogonalLoop=1;jettySize=auto;html=1;" edge="1" parent="WIyWlLk6GJQsqaUBKTNV-1" source="4ZTLZE3sSYFrQPKp-FNL-46" target="4ZTLZE3sSYFrQPKp-FNL-49">
          <mxGeometry relative="1" as="geometry">
            <Array as="points">
              <mxPoint x="250" y="674" />
              <mxPoint x="250" y="674" />
            </Array>
          </mxGeometry>
        </mxCell>
        <mxCell id="4ZTLZE3sSYFrQPKp-FNL-52" value="Yes" style="text;strokeColor=none;align=center;fillColor=none;html=1;verticalAlign=middle;whiteSpace=wrap;rounded=0;" vertex="1" parent="WIyWlLk6GJQsqaUBKTNV-1">
          <mxGeometry x="377.46161290322584" y="650.5660377358491" width="49.08387096774194" height="23.77358490566038" as="geometry" />
        </mxCell>
        <mxCell id="4ZTLZE3sSYFrQPKp-FNL-47" value="" style="edgeStyle=orthogonalEdgeStyle;rounded=0;orthogonalLoop=1;jettySize=auto;html=1;" edge="1" parent="WIyWlLk6GJQsqaUBKTNV-1" source="4ZTLZE3sSYFrQPKp-FNL-44" target="4ZTLZE3sSYFrQPKp-FNL-46">
          <mxGeometry relative="1" as="geometry" />
        </mxCell>
        <mxCell id="4ZTLZE3sSYFrQPKp-FNL-61" value="No" style="text;strokeColor=none;align=center;fillColor=none;html=1;verticalAlign=middle;whiteSpace=wrap;rounded=0;" vertex="1" parent="WIyWlLk6GJQsqaUBKTNV-1">
          <mxGeometry x="281.88" y="720" width="60" height="30" as="geometry" />
        </mxCell>
      </root>
    </mxGraphModel>
  </diagram>
</mxfile>
